<?xml version="1.0" encoding="utf-8" standalone="no"?>
<!DOCTYPE svg PUBLIC "-//W3C//DTD SVG 1.1//EN"
  "http://www.w3.org/Graphics/SVG/1.1/DTD/svg11.dtd">
<svg xmlns:xlink="http://www.w3.org/1999/xlink" width="484.178095pt" height="425.310375pt" viewBox="0 0 484.178095 425.310375" xmlns="http://www.w3.org/2000/svg" version="1.1">
 <metadata>
  <rdf:RDF xmlns:dc="http://purl.org/dc/elements/1.1/" xmlns:cc="http://creativecommons.org/ns#" xmlns:rdf="http://www.w3.org/1999/02/22-rdf-syntax-ns#">
   <cc:Work>
    <dc:type rdf:resource="http://purl.org/dc/dcmitype/StillImage"/>
    <dc:date>2025-12-04T14:14:05.756854</dc:date>
    <dc:format>image/svg+xml</dc:format>
    <dc:creator>
     <cc:Agent>
      <dc:title>Matplotlib v3.10.5, https://matplotlib.org/</dc:title>
     </cc:Agent>
    </dc:creator>
   </cc:Work>
  </rdf:RDF>
 </metadata>
 <defs>
  <style type="text/css">*{stroke-linejoin: round; stroke-linecap: butt}</style>
 </defs>
 <g id="figure_1">
  <g id="patch_1">
   <path d="M 0 425.310375 
L 484.178095 425.310375 
L 484.178095 0 
L 0 0 
z
" style="fill: #ffffff"/>
  </g>
  <g id="axes_1">
   <g id="patch_2">
    <path d="M 38.06675 178.167 
L 192.791114 178.167 
L 192.791114 20.0715 
L 38.06675 20.0715 
z
" style="fill: #ffffff"/>
   </g>
   <g id="matplotlib.axis_1">
    <g id="xtick_1">
     <g id="line2d_1">
      <defs>
       <path id="m734932c6c8" d="M 0 0 
L 0 4.8 
" style="stroke: #262626"/>
      </defs>
      <g>
       <use xlink:href="#m734932c6c8" x="115.428932" y="178.167" style="fill: #262626; stroke: #262626"/>
      </g>
     </g>
     <g id="text_1">
      <!-- 1 -->
      <g style="fill: #262626" transform="translate(112.982119 192.765875) scale(0.088 -0.088)">
       <defs>
        <path id="ArialMT-31" d="M 2384 0 
L 1822 0 
L 1822 3584 
Q 1619 3391 1289 3197 
Q 959 3003 697 2906 
L 697 3450 
Q 1169 3672 1522 3987 
Q 1875 4303 2022 4600 
L 2384 4600 
L 2384 0 
z
" transform="scale(0.015625)"/>
       </defs>
       <use xlink:href="#ArialMT-31"/>
      </g>
     </g>
    </g>
    <g id="text_2">
     <!-- Experiment ID -->
     <g style="fill: #262626" transform="translate(85.020182 205.386375) scale(0.096 -0.096)">
      <defs>
       <path id="ArialMT-45" d="M 506 0 
L 506 4581 
L 3819 4581 
L 3819 4041 
L 1113 4041 
L 1113 2638 
L 3647 2638 
L 3647 2100 
L 1113 2100 
L 1113 541 
L 3925 541 
L 3925 0 
L 506 0 
z
" transform="scale(0.015625)"/>
       <path id="ArialMT-78" d="M 47 0 
L 1259 1725 
L 138 3319 
L 841 3319 
L 1350 2541 
Q 1494 2319 1581 2169 
Q 1719 2375 1834 2534 
L 2394 3319 
L 3066 3319 
L 1919 1756 
L 3153 0 
L 2463 0 
L 1781 1031 
L 1600 1309 
L 728 0 
L 47 0 
z
" transform="scale(0.015625)"/>
       <path id="ArialMT-70" d="M 422 -1272 
L 422 3319 
L 934 3319 
L 934 2888 
Q 1116 3141 1344 3267 
Q 1572 3394 1897 3394 
Q 2322 3394 2647 3175 
Q 2972 2956 3137 2557 
Q 3303 2159 3303 1684 
Q 3303 1175 3120 767 
Q 2938 359 2589 142 
Q 2241 -75 1856 -75 
Q 1575 -75 1351 44 
Q 1128 163 984 344 
L 984 -1272 
L 422 -1272 
z
M 931 1641 
Q 931 1000 1190 694 
Q 1450 388 1819 388 
Q 2194 388 2461 705 
Q 2728 1022 2728 1688 
Q 2728 2322 2467 2637 
Q 2206 2953 1844 2953 
Q 1484 2953 1207 2617 
Q 931 2281 931 1641 
z
" transform="scale(0.015625)"/>
       <path id="ArialMT-65" d="M 2694 1069 
L 3275 997 
Q 3138 488 2766 206 
Q 2394 -75 1816 -75 
Q 1088 -75 661 373 
Q 234 822 234 1631 
Q 234 2469 665 2931 
Q 1097 3394 1784 3394 
Q 2450 3394 2872 2941 
Q 3294 2488 3294 1666 
Q 3294 1616 3291 1516 
L 816 1516 
Q 847 969 1125 678 
Q 1403 388 1819 388 
Q 2128 388 2347 550 
Q 2566 713 2694 1069 
z
M 847 1978 
L 2700 1978 
Q 2663 2397 2488 2606 
Q 2219 2931 1791 2931 
Q 1403 2931 1139 2672 
Q 875 2413 847 1978 
z
" transform="scale(0.015625)"/>
       <path id="ArialMT-72" d="M 416 0 
L 416 3319 
L 922 3319 
L 922 2816 
Q 1116 3169 1280 3281 
Q 1444 3394 1641 3394 
Q 1925 3394 2219 3213 
L 2025 2691 
Q 1819 2813 1613 2813 
Q 1428 2813 1281 2702 
Q 1134 2591 1072 2394 
Q 978 2094 978 1738 
L 978 0 
L 416 0 
z
" transform="scale(0.015625)"/>
       <path id="ArialMT-69" d="M 425 3934 
L 425 4581 
L 988 4581 
L 988 3934 
L 425 3934 
z
M 425 0 
L 425 3319 
L 988 3319 
L 988 0 
L 425 0 
z
" transform="scale(0.015625)"/>
       <path id="ArialMT-6d" d="M 422 0 
L 422 3319 
L 925 3319 
L 925 2853 
Q 1081 3097 1340 3245 
Q 1600 3394 1931 3394 
Q 2300 3394 2536 3241 
Q 2772 3088 2869 2813 
Q 3263 3394 3894 3394 
Q 4388 3394 4653 3120 
Q 4919 2847 4919 2278 
L 4919 0 
L 4359 0 
L 4359 2091 
Q 4359 2428 4304 2576 
Q 4250 2725 4106 2815 
Q 3963 2906 3769 2906 
Q 3419 2906 3187 2673 
Q 2956 2441 2956 1928 
L 2956 0 
L 2394 0 
L 2394 2156 
Q 2394 2531 2256 2718 
Q 2119 2906 1806 2906 
Q 1569 2906 1367 2781 
Q 1166 2656 1075 2415 
Q 984 2175 984 1722 
L 984 0 
L 422 0 
z
" transform="scale(0.015625)"/>
       <path id="ArialMT-6e" d="M 422 0 
L 422 3319 
L 928 3319 
L 928 2847 
Q 1294 3394 1984 3394 
Q 2284 3394 2536 3286 
Q 2788 3178 2913 3003 
Q 3038 2828 3088 2588 
Q 3119 2431 3119 2041 
L 3119 0 
L 2556 0 
L 2556 2019 
Q 2556 2363 2490 2533 
Q 2425 2703 2258 2804 
Q 2091 2906 1866 2906 
Q 1506 2906 1245 2678 
Q 984 2450 984 1813 
L 984 0 
L 422 0 
z
" transform="scale(0.015625)"/>
       <path id="ArialMT-74" d="M 1650 503 
L 1731 6 
Q 1494 -44 1306 -44 
Q 1000 -44 831 53 
Q 663 150 594 308 
Q 525 466 525 972 
L 525 2881 
L 113 2881 
L 113 3319 
L 525 3319 
L 525 4141 
L 1084 4478 
L 1084 3319 
L 1650 3319 
L 1650 2881 
L 1084 2881 
L 1084 941 
Q 1084 700 1114 631 
Q 1144 563 1211 522 
Q 1278 481 1403 481 
Q 1497 481 1650 503 
z
" transform="scale(0.015625)"/>
       <path id="ArialMT-20" transform="scale(0.015625)"/>
       <path id="ArialMT-49" d="M 597 0 
L 597 4581 
L 1203 4581 
L 1203 0 
L 597 0 
z
" transform="scale(0.015625)"/>
       <path id="ArialMT-44" d="M 494 0 
L 494 4581 
L 2072 4581 
Q 2606 4581 2888 4516 
Q 3281 4425 3559 4188 
Q 3922 3881 4101 3404 
Q 4281 2928 4281 2316 
Q 4281 1794 4159 1391 
Q 4038 988 3847 723 
Q 3656 459 3429 307 
Q 3203 156 2883 78 
Q 2563 0 2147 0 
L 494 0 
z
M 1100 541 
L 2078 541 
Q 2531 541 2789 625 
Q 3047 709 3200 863 
Q 3416 1078 3536 1442 
Q 3656 1806 3656 2325 
Q 3656 3044 3420 3430 
Q 3184 3816 2847 3947 
Q 2603 4041 2063 4041 
L 1100 4041 
L 1100 541 
z
" transform="scale(0.015625)"/>
      </defs>
      <use xlink:href="#ArialMT-45"/>
      <use xlink:href="#ArialMT-78" transform="translate(66.699219 0)"/>
      <use xlink:href="#ArialMT-70" transform="translate(116.699219 0)"/>
      <use xlink:href="#ArialMT-65" transform="translate(172.314453 0)"/>
      <use xlink:href="#ArialMT-72" transform="translate(227.929688 0)"/>
      <use xlink:href="#ArialMT-69" transform="translate(261.230469 0)"/>
      <use xlink:href="#ArialMT-6d" transform="translate(283.447266 0)"/>
      <use xlink:href="#ArialMT-65" transform="translate(366.748047 0)"/>
      <use xlink:href="#ArialMT-6e" transform="translate(422.363281 0)"/>
      <use xlink:href="#ArialMT-74" transform="translate(477.978516 0)"/>
      <use xlink:href="#ArialMT-20" transform="translate(505.761719 0)"/>
      <use xlink:href="#ArialMT-49" transform="translate(533.544922 0)"/>
      <use xlink:href="#ArialMT-44" transform="translate(561.328125 0)"/>
     </g>
    </g>
   </g>
   <g id="matplotlib.axis_2">
    <g id="ytick_1">
     <g id="line2d_2">
      <defs>
       <path id="m6d5d7acafa" d="M 0 0 
L -4.8 0 
" style="stroke: #262626"/>
      </defs>
      <g>
       <use xlink:href="#m6d5d7acafa" x="38.06675" y="178.167" style="fill: #262626; stroke: #262626"/>
      </g>
     </g>
     <g id="text_3">
      <!-- 0 -->
      <g style="fill: #262626" transform="translate(24.873125 181.316438) scale(0.088 -0.088)">
       <defs>
        <path id="ArialMT-30" d="M 266 2259 
Q 266 3072 433 3567 
Q 600 4063 929 4331 
Q 1259 4600 1759 4600 
Q 2128 4600 2406 4451 
Q 2684 4303 2865 4023 
Q 3047 3744 3150 3342 
Q 3253 2941 3253 2259 
Q 3253 1453 3087 958 
Q 2922 463 2592 192 
Q 2263 -78 1759 -78 
Q 1097 -78 719 397 
Q 266 969 266 2259 
z
M 844 2259 
Q 844 1131 1108 757 
Q 1372 384 1759 384 
Q 2147 384 2411 759 
Q 2675 1134 2675 2259 
Q 2675 3391 2411 3762 
Q 2147 4134 1753 4134 
Q 1366 4134 1134 3806 
Q 844 3388 844 2259 
z
" transform="scale(0.015625)"/>
       </defs>
       <use xlink:href="#ArialMT-30"/>
      </g>
     </g>
    </g>
    <g id="ytick_2">
     <g id="line2d_3">
      <g>
       <use xlink:href="#m6d5d7acafa" x="38.06675" y="148.644031" style="fill: #262626; stroke: #262626"/>
      </g>
     </g>
     <g id="text_4">
      <!-- 10 -->
      <g style="fill: #262626" transform="translate(19.9795 151.793468) scale(0.088 -0.088)">
       <use xlink:href="#ArialMT-31"/>
       <use xlink:href="#ArialMT-30" transform="translate(55.615234 0)"/>
      </g>
     </g>
    </g>
    <g id="ytick_3">
     <g id="line2d_4">
      <g>
       <use xlink:href="#m6d5d7acafa" x="38.06675" y="119.121062" style="fill: #262626; stroke: #262626"/>
      </g>
     </g>
     <g id="text_5">
      <!-- 20 -->
      <g style="fill: #262626" transform="translate(19.9795 122.270499) scale(0.088 -0.088)">
       <defs>
        <path id="ArialMT-32" d="M 3222 541 
L 3222 0 
L 194 0 
Q 188 203 259 391 
Q 375 700 629 1000 
Q 884 1300 1366 1694 
Q 2113 2306 2375 2664 
Q 2638 3022 2638 3341 
Q 2638 3675 2398 3904 
Q 2159 4134 1775 4134 
Q 1369 4134 1125 3890 
Q 881 3647 878 3216 
L 300 3275 
Q 359 3922 746 4261 
Q 1134 4600 1788 4600 
Q 2447 4600 2831 4234 
Q 3216 3869 3216 3328 
Q 3216 3053 3103 2787 
Q 2991 2522 2730 2228 
Q 2469 1934 1863 1422 
Q 1356 997 1212 845 
Q 1069 694 975 541 
L 3222 541 
z
" transform="scale(0.015625)"/>
       </defs>
       <use xlink:href="#ArialMT-32"/>
       <use xlink:href="#ArialMT-30" transform="translate(55.615234 0)"/>
      </g>
     </g>
    </g>
    <g id="ytick_4">
     <g id="line2d_5">
      <g>
       <use xlink:href="#m6d5d7acafa" x="38.06675" y="89.598092" style="fill: #262626; stroke: #262626"/>
      </g>
     </g>
     <g id="text_6">
      <!-- 30 -->
      <g style="fill: #262626" transform="translate(19.9795 92.74753) scale(0.088 -0.088)">
       <defs>
        <path id="ArialMT-33" d="M 269 1209 
L 831 1284 
Q 928 806 1161 595 
Q 1394 384 1728 384 
Q 2125 384 2398 659 
Q 2672 934 2672 1341 
Q 2672 1728 2419 1979 
Q 2166 2231 1775 2231 
Q 1616 2231 1378 2169 
L 1441 2663 
Q 1497 2656 1531 2656 
Q 1891 2656 2178 2843 
Q 2466 3031 2466 3422 
Q 2466 3731 2256 3934 
Q 2047 4138 1716 4138 
Q 1388 4138 1169 3931 
Q 950 3725 888 3313 
L 325 3413 
Q 428 3978 793 4289 
Q 1159 4600 1703 4600 
Q 2078 4600 2393 4439 
Q 2709 4278 2876 4000 
Q 3044 3722 3044 3409 
Q 3044 3113 2884 2869 
Q 2725 2625 2413 2481 
Q 2819 2388 3044 2092 
Q 3269 1797 3269 1353 
Q 3269 753 2831 336 
Q 2394 -81 1725 -81 
Q 1122 -81 723 278 
Q 325 638 269 1209 
z
" transform="scale(0.015625)"/>
       </defs>
       <use xlink:href="#ArialMT-33"/>
       <use xlink:href="#ArialMT-30" transform="translate(55.615234 0)"/>
      </g>
     </g>
    </g>
    <g id="ytick_5">
     <g id="line2d_6">
      <g>
       <use xlink:href="#m6d5d7acafa" x="38.06675" y="60.075123" style="fill: #262626; stroke: #262626"/>
      </g>
     </g>
     <g id="text_7">
      <!-- 40 -->
      <g style="fill: #262626" transform="translate(19.9795 63.224561) scale(0.088 -0.088)">
       <defs>
        <path id="ArialMT-34" d="M 2069 0 
L 2069 1097 
L 81 1097 
L 81 1613 
L 2172 4581 
L 2631 4581 
L 2631 1613 
L 3250 1613 
L 3250 1097 
L 2631 1097 
L 2631 0 
L 2069 0 
z
M 2069 1613 
L 2069 3678 
L 634 1613 
L 2069 1613 
z
" transform="scale(0.015625)"/>
       </defs>
       <use xlink:href="#ArialMT-34"/>
       <use xlink:href="#ArialMT-30" transform="translate(55.615234 0)"/>
      </g>
     </g>
    </g>
    <g id="ytick_6">
     <g id="line2d_7">
      <g>
       <use xlink:href="#m6d5d7acafa" x="38.06675" y="30.552154" style="fill: #262626; stroke: #262626"/>
      </g>
     </g>
     <g id="text_8">
      <!-- 50 -->
      <g style="fill: #262626" transform="translate(19.9795 33.701592) scale(0.088 -0.088)">
       <defs>
        <path id="ArialMT-35" d="M 266 1200 
L 856 1250 
Q 922 819 1161 601 
Q 1400 384 1738 384 
Q 2144 384 2425 690 
Q 2706 997 2706 1503 
Q 2706 1984 2436 2262 
Q 2166 2541 1728 2541 
Q 1456 2541 1237 2417 
Q 1019 2294 894 2097 
L 366 2166 
L 809 4519 
L 3088 4519 
L 3088 3981 
L 1259 3981 
L 1013 2750 
Q 1425 3038 1878 3038 
Q 2478 3038 2890 2622 
Q 3303 2206 3303 1553 
Q 3303 931 2941 478 
Q 2500 -78 1738 -78 
Q 1113 -78 717 272 
Q 322 622 266 1200 
z
" transform="scale(0.015625)"/>
       </defs>
       <use xlink:href="#ArialMT-35"/>
       <use xlink:href="#ArialMT-30" transform="translate(55.615234 0)"/>
      </g>
     </g>
    </g>
    <g id="text_9">
     <!-- Count -->
     <g style="fill: #262626" transform="translate(14.0715 111.927) rotate(-90) scale(0.096 -0.096)">
      <defs>
       <path id="ArialMT-43" d="M 3763 1606 
L 4369 1453 
Q 4178 706 3683 314 
Q 3188 -78 2472 -78 
Q 1731 -78 1267 223 
Q 803 525 561 1097 
Q 319 1669 319 2325 
Q 319 3041 592 3573 
Q 866 4106 1370 4382 
Q 1875 4659 2481 4659 
Q 3169 4659 3637 4309 
Q 4106 3959 4291 3325 
L 3694 3184 
Q 3534 3684 3231 3912 
Q 2928 4141 2469 4141 
Q 1941 4141 1586 3887 
Q 1231 3634 1087 3207 
Q 944 2781 944 2328 
Q 944 1744 1114 1308 
Q 1284 872 1643 656 
Q 2003 441 2422 441 
Q 2931 441 3284 734 
Q 3638 1028 3763 1606 
z
" transform="scale(0.015625)"/>
       <path id="ArialMT-6f" d="M 213 1659 
Q 213 2581 725 3025 
Q 1153 3394 1769 3394 
Q 2453 3394 2887 2945 
Q 3322 2497 3322 1706 
Q 3322 1066 3130 698 
Q 2938 331 2570 128 
Q 2203 -75 1769 -75 
Q 1072 -75 642 372 
Q 213 819 213 1659 
z
M 791 1659 
Q 791 1022 1069 705 
Q 1347 388 1769 388 
Q 2188 388 2466 706 
Q 2744 1025 2744 1678 
Q 2744 2294 2464 2611 
Q 2184 2928 1769 2928 
Q 1347 2928 1069 2612 
Q 791 2297 791 1659 
z
" transform="scale(0.015625)"/>
       <path id="ArialMT-75" d="M 2597 0 
L 2597 488 
Q 2209 -75 1544 -75 
Q 1250 -75 995 37 
Q 741 150 617 320 
Q 494 491 444 738 
Q 409 903 409 1263 
L 409 3319 
L 972 3319 
L 972 1478 
Q 972 1038 1006 884 
Q 1059 663 1231 536 
Q 1403 409 1656 409 
Q 1909 409 2131 539 
Q 2353 669 2445 892 
Q 2538 1116 2538 1541 
L 2538 3319 
L 3100 3319 
L 3100 0 
L 2597 0 
z
" transform="scale(0.015625)"/>
      </defs>
      <use xlink:href="#ArialMT-43"/>
      <use xlink:href="#ArialMT-6f" transform="translate(72.216797 0)"/>
      <use xlink:href="#ArialMT-75" transform="translate(127.832031 0)"/>
      <use xlink:href="#ArialMT-6e" transform="translate(183.447266 0)"/>
      <use xlink:href="#ArialMT-74" transform="translate(239.0625 0)"/>
     </g>
    </g>
   </g>
   <g id="patch_3">
    <path d="M 45.099676 178.167 
L 185.758188 178.167 
L 185.758188 133.882546 
L 45.099676 133.882546 
z
" clip-path="url(#p0da944df8f)" style="fill: #c26a77; fill-opacity: 0.75; stroke: #ffffff; stroke-width: 0.8; stroke-linejoin: miter"/>
   </g>
   <g id="patch_4">
    <path d="M 45.099676 133.882546 
L 185.758188 133.882546 
L 185.758188 27.599857 
L 45.099676 27.599857 
z
" clip-path="url(#p0da944df8f)" style="fill: #337538; fill-opacity: 0.75; stroke: #ffffff; stroke-width: 0.8; stroke-linejoin: miter"/>
   </g>
   <g id="patch_5">
    <path d="M 38.06675 178.167 
L 38.06675 20.0715 
" style="fill: none; stroke: #262626; stroke-linejoin: miter; stroke-linecap: square"/>
   </g>
   <g id="patch_6">
    <path d="M 192.791114 178.167 
L 192.791114 20.0715 
" style="fill: none; stroke: #262626; stroke-linejoin: miter; stroke-linecap: square"/>
   </g>
   <g id="patch_7">
    <path d="M 38.06675 178.167 
L 192.791114 178.167 
" style="fill: none; stroke: #262626; stroke-linejoin: miter; stroke-linecap: square"/>
   </g>
   <g id="patch_8">
    <path d="M 38.06675 20.0715 
L 192.791114 20.0715 
" style="fill: none; stroke: #262626; stroke-linejoin: miter; stroke-linecap: square"/>
   </g>
   <g id="text_10">
    <!-- 15 -->
    <g style="fill: #262626" transform="translate(110.090432 158.358908) scale(0.096 -0.096)">
     <use xlink:href="#ArialMT-31"/>
     <use xlink:href="#ArialMT-35" transform="translate(55.615234 0)"/>
    </g>
   </g>
   <g id="text_11">
    <!-- 36 -->
    <g style="fill: #262626" transform="translate(110.090432 83.075337) scale(0.096 -0.096)">
     <defs>
      <path id="ArialMT-36" d="M 3184 3459 
L 2625 3416 
Q 2550 3747 2413 3897 
Q 2184 4138 1850 4138 
Q 1581 4138 1378 3988 
Q 1113 3794 959 3422 
Q 806 3050 800 2363 
Q 1003 2672 1297 2822 
Q 1591 2972 1913 2972 
Q 2475 2972 2870 2558 
Q 3266 2144 3266 1488 
Q 3266 1056 3080 686 
Q 2894 316 2569 119 
Q 2244 -78 1831 -78 
Q 1128 -78 684 439 
Q 241 956 241 2144 
Q 241 3472 731 4075 
Q 1159 4600 1884 4600 
Q 2425 4600 2770 4297 
Q 3116 3994 3184 3459 
z
M 888 1484 
Q 888 1194 1011 928 
Q 1134 663 1356 523 
Q 1578 384 1822 384 
Q 2178 384 2434 671 
Q 2691 959 2691 1453 
Q 2691 1928 2437 2201 
Q 2184 2475 1800 2475 
Q 1419 2475 1153 2201 
Q 888 1928 888 1484 
z
" transform="scale(0.015625)"/>
     </defs>
     <use xlink:href="#ArialMT-33"/>
     <use xlink:href="#ArialMT-36" transform="translate(55.615234 0)"/>
    </g>
   </g>
   <g id="text_12">
    <!-- incubate, 2 classes -->
    <g style="fill: #262626" transform="translate(74.607932 14.0715) scale(0.096 -0.096)">
     <defs>
      <path id="ArialMT-63" d="M 2588 1216 
L 3141 1144 
Q 3050 572 2676 248 
Q 2303 -75 1759 -75 
Q 1078 -75 664 370 
Q 250 816 250 1647 
Q 250 2184 428 2587 
Q 606 2991 970 3192 
Q 1334 3394 1763 3394 
Q 2303 3394 2647 3120 
Q 2991 2847 3088 2344 
L 2541 2259 
Q 2463 2594 2264 2762 
Q 2066 2931 1784 2931 
Q 1359 2931 1093 2626 
Q 828 2322 828 1663 
Q 828 994 1084 691 
Q 1341 388 1753 388 
Q 2084 388 2306 591 
Q 2528 794 2588 1216 
z
" transform="scale(0.015625)"/>
      <path id="ArialMT-62" d="M 941 0 
L 419 0 
L 419 4581 
L 981 4581 
L 981 2947 
Q 1338 3394 1891 3394 
Q 2197 3394 2470 3270 
Q 2744 3147 2920 2923 
Q 3097 2700 3197 2384 
Q 3297 2069 3297 1709 
Q 3297 856 2875 390 
Q 2453 -75 1863 -75 
Q 1275 -75 941 416 
L 941 0 
z
M 934 1684 
Q 934 1088 1097 822 
Q 1363 388 1816 388 
Q 2184 388 2453 708 
Q 2722 1028 2722 1663 
Q 2722 2313 2464 2622 
Q 2206 2931 1841 2931 
Q 1472 2931 1203 2611 
Q 934 2291 934 1684 
z
" transform="scale(0.015625)"/>
      <path id="ArialMT-61" d="M 2588 409 
Q 2275 144 1986 34 
Q 1697 -75 1366 -75 
Q 819 -75 525 192 
Q 231 459 231 875 
Q 231 1119 342 1320 
Q 453 1522 633 1644 
Q 813 1766 1038 1828 
Q 1203 1872 1538 1913 
Q 2219 1994 2541 2106 
Q 2544 2222 2544 2253 
Q 2544 2597 2384 2738 
Q 2169 2928 1744 2928 
Q 1347 2928 1158 2789 
Q 969 2650 878 2297 
L 328 2372 
Q 403 2725 575 2942 
Q 747 3159 1072 3276 
Q 1397 3394 1825 3394 
Q 2250 3394 2515 3294 
Q 2781 3194 2906 3042 
Q 3031 2891 3081 2659 
Q 3109 2516 3109 2141 
L 3109 1391 
Q 3109 606 3145 398 
Q 3181 191 3288 0 
L 2700 0 
Q 2613 175 2588 409 
z
M 2541 1666 
Q 2234 1541 1622 1453 
Q 1275 1403 1131 1340 
Q 988 1278 909 1158 
Q 831 1038 831 891 
Q 831 666 1001 516 
Q 1172 366 1500 366 
Q 1825 366 2078 508 
Q 2331 650 2450 897 
Q 2541 1088 2541 1459 
L 2541 1666 
z
" transform="scale(0.015625)"/>
      <path id="ArialMT-2c" d="M 569 0 
L 569 641 
L 1209 641 
L 1209 0 
Q 1209 -353 1084 -570 
Q 959 -788 688 -906 
L 531 -666 
Q 709 -588 793 -436 
Q 878 -284 888 0 
L 569 0 
z
" transform="scale(0.015625)"/>
      <path id="ArialMT-6c" d="M 409 0 
L 409 4581 
L 972 4581 
L 972 0 
L 409 0 
z
" transform="scale(0.015625)"/>
      <path id="ArialMT-73" d="M 197 991 
L 753 1078 
Q 800 744 1014 566 
Q 1228 388 1613 388 
Q 2000 388 2187 545 
Q 2375 703 2375 916 
Q 2375 1106 2209 1216 
Q 2094 1291 1634 1406 
Q 1016 1563 777 1677 
Q 538 1791 414 1992 
Q 291 2194 291 2438 
Q 291 2659 392 2848 
Q 494 3038 669 3163 
Q 800 3259 1026 3326 
Q 1253 3394 1513 3394 
Q 1903 3394 2198 3281 
Q 2494 3169 2634 2976 
Q 2775 2784 2828 2463 
L 2278 2388 
Q 2241 2644 2061 2787 
Q 1881 2931 1553 2931 
Q 1166 2931 1000 2803 
Q 834 2675 834 2503 
Q 834 2394 903 2306 
Q 972 2216 1119 2156 
Q 1203 2125 1616 2013 
Q 2213 1853 2448 1751 
Q 2684 1650 2818 1456 
Q 2953 1263 2953 975 
Q 2953 694 2789 445 
Q 2625 197 2315 61 
Q 2006 -75 1616 -75 
Q 969 -75 630 194 
Q 291 463 197 991 
z
" transform="scale(0.015625)"/>
     </defs>
     <use xlink:href="#ArialMT-69"/>
     <use xlink:href="#ArialMT-6e" transform="translate(22.216797 0)"/>
     <use xlink:href="#ArialMT-63" transform="translate(77.832031 0)"/>
     <use xlink:href="#ArialMT-75" transform="translate(127.832031 0)"/>
     <use xlink:href="#ArialMT-62" transform="translate(183.447266 0)"/>
     <use xlink:href="#ArialMT-61" transform="translate(239.0625 0)"/>
     <use xlink:href="#ArialMT-74" transform="translate(294.677734 0)"/>
     <use xlink:href="#ArialMT-65" transform="translate(322.460938 0)"/>
     <use xlink:href="#ArialMT-2c" transform="translate(378.076172 0)"/>
     <use xlink:href="#ArialMT-20" transform="translate(405.859375 0)"/>
     <use xlink:href="#ArialMT-32" transform="translate(433.642578 0)"/>
     <use xlink:href="#ArialMT-20" transform="translate(489.257812 0)"/>
     <use xlink:href="#ArialMT-63" transform="translate(517.041016 0)"/>
     <use xlink:href="#ArialMT-6c" transform="translate(567.041016 0)"/>
     <use xlink:href="#ArialMT-61" transform="translate(589.257812 0)"/>
     <use xlink:href="#ArialMT-73" transform="translate(644.873047 0)"/>
     <use xlink:href="#ArialMT-73" transform="translate(694.873047 0)"/>
     <use xlink:href="#ArialMT-65" transform="translate(744.873047 0)"/>
     <use xlink:href="#ArialMT-73" transform="translate(800.488281 0)"/>
    </g>
   </g>
  </g>
  <g id="axes_2">
   <g id="patch_9">
    <path d="M 233.819114 178.167 
L 388.543477 178.167 
L 388.543477 20.0715 
L 233.819114 20.0715 
z
" style="fill: #ffffff"/>
   </g>
   <g id="matplotlib.axis_3">
    <g id="xtick_2">
     <g id="line2d_8">
      <g>
       <use xlink:href="#m734932c6c8" x="311.181295" y="178.167" style="fill: #262626; stroke: #262626"/>
      </g>
     </g>
     <g id="text_13">
      <!-- 1 -->
      <g style="fill: #262626" transform="translate(308.734483 192.765875) scale(0.088 -0.088)">
       <use xlink:href="#ArialMT-31"/>
      </g>
     </g>
    </g>
    <g id="text_14">
     <!-- Experiment ID -->
     <g style="fill: #262626" transform="translate(280.772545 205.386375) scale(0.096 -0.096)">
      <use xlink:href="#ArialMT-45"/>
      <use xlink:href="#ArialMT-78" transform="translate(66.699219 0)"/>
      <use xlink:href="#ArialMT-70" transform="translate(116.699219 0)"/>
      <use xlink:href="#ArialMT-65" transform="translate(172.314453 0)"/>
      <use xlink:href="#ArialMT-72" transform="translate(227.929688 0)"/>
      <use xlink:href="#ArialMT-69" transform="translate(261.230469 0)"/>
      <use xlink:href="#ArialMT-6d" transform="translate(283.447266 0)"/>
      <use xlink:href="#ArialMT-65" transform="translate(366.748047 0)"/>
      <use xlink:href="#ArialMT-6e" transform="translate(422.363281 0)"/>
      <use xlink:href="#ArialMT-74" transform="translate(477.978516 0)"/>
      <use xlink:href="#ArialMT-20" transform="translate(505.761719 0)"/>
      <use xlink:href="#ArialMT-49" transform="translate(533.544922 0)"/>
      <use xlink:href="#ArialMT-44" transform="translate(561.328125 0)"/>
     </g>
    </g>
   </g>
   <g id="matplotlib.axis_4">
    <g id="ytick_7">
     <g id="line2d_9">
      <g>
       <use xlink:href="#m6d5d7acafa" x="233.819114" y="178.167" style="fill: #262626; stroke: #262626"/>
      </g>
     </g>
     <g id="text_15">
      <!-- 0 -->
      <g style="fill: #262626" transform="translate(220.625489 181.316438) scale(0.088 -0.088)">
       <use xlink:href="#ArialMT-30"/>
      </g>
     </g>
    </g>
    <g id="ytick_8">
     <g id="line2d_10">
      <g>
       <use xlink:href="#m6d5d7acafa" x="233.819114" y="157.254897" style="fill: #262626; stroke: #262626"/>
      </g>
     </g>
     <g id="text_16">
      <!-- 10 -->
      <g style="fill: #262626" transform="translate(215.731864 160.404334) scale(0.088 -0.088)">
       <use xlink:href="#ArialMT-31"/>
       <use xlink:href="#ArialMT-30" transform="translate(55.615234 0)"/>
      </g>
     </g>
    </g>
    <g id="ytick_9">
     <g id="line2d_11">
      <g>
       <use xlink:href="#m6d5d7acafa" x="233.819114" y="136.342794" style="fill: #262626; stroke: #262626"/>
      </g>
     </g>
     <g id="text_17">
      <!-- 20 -->
      <g style="fill: #262626" transform="translate(215.731864 139.492231) scale(0.088 -0.088)">
       <use xlink:href="#ArialMT-32"/>
       <use xlink:href="#ArialMT-30" transform="translate(55.615234 0)"/>
      </g>
     </g>
    </g>
    <g id="ytick_10">
     <g id="line2d_12">
      <g>
       <use xlink:href="#m6d5d7acafa" x="233.819114" y="115.43069" style="fill: #262626; stroke: #262626"/>
      </g>
     </g>
     <g id="text_18">
      <!-- 30 -->
      <g style="fill: #262626" transform="translate(215.731864 118.580128) scale(0.088 -0.088)">
       <use xlink:href="#ArialMT-33"/>
       <use xlink:href="#ArialMT-30" transform="translate(55.615234 0)"/>
      </g>
     </g>
    </g>
    <g id="ytick_11">
     <g id="line2d_13">
      <g>
       <use xlink:href="#m6d5d7acafa" x="233.819114" y="94.518587" style="fill: #262626; stroke: #262626"/>
      </g>
     </g>
     <g id="text_19">
      <!-- 40 -->
      <g style="fill: #262626" transform="translate(215.731864 97.668025) scale(0.088 -0.088)">
       <use xlink:href="#ArialMT-34"/>
       <use xlink:href="#ArialMT-30" transform="translate(55.615234 0)"/>
      </g>
     </g>
    </g>
    <g id="ytick_12">
     <g id="line2d_14">
      <g>
       <use xlink:href="#m6d5d7acafa" x="233.819114" y="73.606484" style="fill: #262626; stroke: #262626"/>
      </g>
     </g>
     <g id="text_20">
      <!-- 50 -->
      <g style="fill: #262626" transform="translate(215.731864 76.755922) scale(0.088 -0.088)">
       <use xlink:href="#ArialMT-35"/>
       <use xlink:href="#ArialMT-30" transform="translate(55.615234 0)"/>
      </g>
     </g>
    </g>
    <g id="ytick_13">
     <g id="line2d_15">
      <g>
       <use xlink:href="#m6d5d7acafa" x="233.819114" y="52.694381" style="fill: #262626; stroke: #262626"/>
      </g>
     </g>
     <g id="text_21">
      <!-- 60 -->
      <g style="fill: #262626" transform="translate(215.731864 55.843818) scale(0.088 -0.088)">
       <use xlink:href="#ArialMT-36"/>
       <use xlink:href="#ArialMT-30" transform="translate(55.615234 0)"/>
      </g>
     </g>
    </g>
    <g id="ytick_14">
     <g id="line2d_16">
      <g>
       <use xlink:href="#m6d5d7acafa" x="233.819114" y="31.782278" style="fill: #262626; stroke: #262626"/>
      </g>
     </g>
     <g id="text_22">
      <!-- 70 -->
      <g style="fill: #262626" transform="translate(215.731864 34.931715) scale(0.088 -0.088)">
       <defs>
        <path id="ArialMT-37" d="M 303 3981 
L 303 4522 
L 3269 4522 
L 3269 4084 
Q 2831 3619 2401 2847 
Q 1972 2075 1738 1259 
Q 1569 684 1522 0 
L 944 0 
Q 953 541 1156 1306 
Q 1359 2072 1739 2783 
Q 2119 3494 2547 3981 
L 303 3981 
z
" transform="scale(0.015625)"/>
       </defs>
       <use xlink:href="#ArialMT-37"/>
       <use xlink:href="#ArialMT-30" transform="translate(55.615234 0)"/>
      </g>
     </g>
    </g>
    <g id="text_23">
     <!-- Count -->
     <g style="fill: #262626" transform="translate(209.823864 111.927) rotate(-90) scale(0.096 -0.096)">
      <use xlink:href="#ArialMT-43"/>
      <use xlink:href="#ArialMT-6f" transform="translate(72.216797 0)"/>
      <use xlink:href="#ArialMT-75" transform="translate(127.832031 0)"/>
      <use xlink:href="#ArialMT-6e" transform="translate(183.447266 0)"/>
      <use xlink:href="#ArialMT-74" transform="translate(239.0625 0)"/>
     </g>
    </g>
   </g>
   <g id="patch_10">
    <path d="M 240.852039 178.167 
L 381.510552 178.167 
L 381.510552 115.43069 
L 240.852039 115.43069 
z
" clip-path="url(#p005a490673)" style="fill: #c26a77; fill-opacity: 0.75; stroke: #ffffff; stroke-width: 0.8; stroke-linejoin: miter"/>
   </g>
   <g id="patch_11">
    <path d="M 240.852039 115.43069 
L 381.510552 115.43069 
L 381.510552 27.599857 
L 240.852039 27.599857 
z
" clip-path="url(#p005a490673)" style="fill: #337538; fill-opacity: 0.75; stroke: #ffffff; stroke-width: 0.8; stroke-linejoin: miter"/>
   </g>
   <g id="patch_12">
    <path d="M 233.819114 178.167 
L 233.819114 20.0715 
" style="fill: none; stroke: #262626; stroke-linejoin: miter; stroke-linecap: square"/>
   </g>
   <g id="patch_13">
    <path d="M 388.543477 178.167 
L 388.543477 20.0715 
" style="fill: none; stroke: #262626; stroke-linejoin: miter; stroke-linecap: square"/>
   </g>
   <g id="patch_14">
    <path d="M 233.819114 178.167 
L 388.543477 178.167 
" style="fill: none; stroke: #262626; stroke-linejoin: miter; stroke-linecap: square"/>
   </g>
   <g id="patch_15">
    <path d="M 233.819114 20.0715 
L 388.543477 20.0715 
" style="fill: none; stroke: #262626; stroke-linejoin: miter; stroke-linecap: square"/>
   </g>
   <g id="text_24">
    <!-- 30 -->
    <g style="fill: #262626" transform="translate(305.842795 149.176035) scale(0.096 -0.096)">
     <use xlink:href="#ArialMT-33"/>
     <use xlink:href="#ArialMT-30" transform="translate(55.615234 0)"/>
    </g>
   </g>
   <g id="text_25">
    <!-- 42 -->
    <g style="fill: #262626" transform="translate(305.842795 73.892463) scale(0.096 -0.096)">
     <use xlink:href="#ArialMT-34"/>
     <use xlink:href="#ArialMT-32" transform="translate(55.615234 0)"/>
    </g>
   </g>
   <g id="text_26">
    <!-- immediate, 2 classes -->
    <g style="fill: #262626" transform="translate(266.366545 14.0715) scale(0.096 -0.096)">
     <defs>
      <path id="ArialMT-64" d="M 2575 0 
L 2575 419 
Q 2259 -75 1647 -75 
Q 1250 -75 917 144 
Q 584 363 401 755 
Q 219 1147 219 1656 
Q 219 2153 384 2558 
Q 550 2963 881 3178 
Q 1213 3394 1622 3394 
Q 1922 3394 2156 3267 
Q 2391 3141 2538 2938 
L 2538 4581 
L 3097 4581 
L 3097 0 
L 2575 0 
z
M 797 1656 
Q 797 1019 1065 703 
Q 1334 388 1700 388 
Q 2069 388 2326 689 
Q 2584 991 2584 1609 
Q 2584 2291 2321 2609 
Q 2059 2928 1675 2928 
Q 1300 2928 1048 2622 
Q 797 2316 797 1656 
z
" transform="scale(0.015625)"/>
     </defs>
     <use xlink:href="#ArialMT-69"/>
     <use xlink:href="#ArialMT-6d" transform="translate(22.216797 0)"/>
     <use xlink:href="#ArialMT-6d" transform="translate(105.517578 0)"/>
     <use xlink:href="#ArialMT-65" transform="translate(188.818359 0)"/>
     <use xlink:href="#ArialMT-64" transform="translate(244.433594 0)"/>
     <use xlink:href="#ArialMT-69" transform="translate(300.048828 0)"/>
     <use xlink:href="#ArialMT-61" transform="translate(322.265625 0)"/>
     <use xlink:href="#ArialMT-74" transform="translate(377.880859 0)"/>
     <use xlink:href="#ArialMT-65" transform="translate(405.664062 0)"/>
     <use xlink:href="#ArialMT-2c" transform="translate(461.279297 0)"/>
     <use xlink:href="#ArialMT-20" transform="translate(489.0625 0)"/>
     <use xlink:href="#ArialMT-32" transform="translate(516.845703 0)"/>
     <use xlink:href="#ArialMT-20" transform="translate(572.460938 0)"/>
     <use xlink:href="#ArialMT-63" transform="translate(600.244141 0)"/>
     <use xlink:href="#ArialMT-6c" transform="translate(650.244141 0)"/>
     <use xlink:href="#ArialMT-61" transform="translate(672.460938 0)"/>
     <use xlink:href="#ArialMT-73" transform="translate(728.076172 0)"/>
     <use xlink:href="#ArialMT-73" transform="translate(778.076172 0)"/>
     <use xlink:href="#ArialMT-65" transform="translate(828.076172 0)"/>
     <use xlink:href="#ArialMT-73" transform="translate(883.691406 0)"/>
    </g>
   </g>
   <g id="legend_1">
    <g id="patch_16">
     <path d="M 409.38997 52.110375 
L 475.218095 52.110375 
Q 476.978095 52.110375 476.978095 50.350375 
L 476.978095 26.2315 
Q 476.978095 24.4715 475.218095 24.4715 
L 409.38997 24.4715 
Q 407.62997 24.4715 407.62997 26.2315 
L 407.62997 50.350375 
Q 407.62997 52.110375 409.38997 52.110375 
z
" style="fill: #ffffff; opacity: 0.8; stroke: #cccccc; stroke-width: 0.8; stroke-linejoin: miter"/>
    </g>
    <g id="patch_17">
     <path d="M 411.14997 34.290375 
L 428.74997 34.290375 
L 428.74997 28.130375 
L 411.14997 28.130375 
z
" style="fill: #c26a77; fill-opacity: 0.75; stroke: #ffffff; stroke-width: 0.8; stroke-linejoin: miter"/>
    </g>
    <g id="text_27">
     <!-- low viab. -->
     <g style="fill: #262626" transform="translate(435.78997 34.290375) scale(0.088 -0.088)">
      <defs>
       <path id="ArialMT-77" d="M 1034 0 
L 19 3319 
L 600 3319 
L 1128 1403 
L 1325 691 
Q 1338 744 1497 1375 
L 2025 3319 
L 2603 3319 
L 3100 1394 
L 3266 759 
L 3456 1400 
L 4025 3319 
L 4572 3319 
L 3534 0 
L 2950 0 
L 2422 1988 
L 2294 2553 
L 1622 0 
L 1034 0 
z
" transform="scale(0.015625)"/>
       <path id="ArialMT-76" d="M 1344 0 
L 81 3319 
L 675 3319 
L 1388 1331 
Q 1503 1009 1600 663 
Q 1675 925 1809 1294 
L 2547 3319 
L 3125 3319 
L 1869 0 
L 1344 0 
z
" transform="scale(0.015625)"/>
       <path id="ArialMT-2e" d="M 581 0 
L 581 641 
L 1222 641 
L 1222 0 
L 581 0 
z
" transform="scale(0.015625)"/>
      </defs>
      <use xlink:href="#ArialMT-6c"/>
      <use xlink:href="#ArialMT-6f" transform="translate(22.216797 0)"/>
      <use xlink:href="#ArialMT-77" transform="translate(77.832031 0)"/>
      <use xlink:href="#ArialMT-20" transform="translate(150.048828 0)"/>
      <use xlink:href="#ArialMT-76" transform="translate(177.832031 0)"/>
      <use xlink:href="#ArialMT-69" transform="translate(227.832031 0)"/>
      <use xlink:href="#ArialMT-61" transform="translate(250.048828 0)"/>
      <use xlink:href="#ArialMT-62" transform="translate(305.664062 0)"/>
      <use xlink:href="#ArialMT-2e" transform="translate(361.279297 0)"/>
     </g>
    </g>
    <g id="patch_18">
     <path d="M 411.14997 46.73825 
L 428.74997 46.73825 
L 428.74997 40.57825 
L 411.14997 40.57825 
z
" style="fill: #337538; fill-opacity: 0.75; stroke: #ffffff; stroke-width: 0.8; stroke-linejoin: miter"/>
    </g>
    <g id="text_28">
     <!-- high viab. -->
     <g style="fill: #262626" transform="translate(435.78997 46.73825) scale(0.088 -0.088)">
      <defs>
       <path id="ArialMT-68" d="M 422 0 
L 422 4581 
L 984 4581 
L 984 2938 
Q 1378 3394 1978 3394 
Q 2347 3394 2619 3248 
Q 2891 3103 3008 2847 
Q 3125 2591 3125 2103 
L 3125 0 
L 2563 0 
L 2563 2103 
Q 2563 2525 2380 2717 
Q 2197 2909 1863 2909 
Q 1613 2909 1392 2779 
Q 1172 2650 1078 2428 
Q 984 2206 984 1816 
L 984 0 
L 422 0 
z
" transform="scale(0.015625)"/>
       <path id="ArialMT-67" d="M 319 -275 
L 866 -356 
Q 900 -609 1056 -725 
Q 1266 -881 1628 -881 
Q 2019 -881 2231 -725 
Q 2444 -569 2519 -288 
Q 2563 -116 2559 434 
Q 2191 0 1641 0 
Q 956 0 581 494 
Q 206 988 206 1678 
Q 206 2153 378 2554 
Q 550 2956 876 3175 
Q 1203 3394 1644 3394 
Q 2231 3394 2613 2919 
L 2613 3319 
L 3131 3319 
L 3131 450 
Q 3131 -325 2973 -648 
Q 2816 -972 2473 -1159 
Q 2131 -1347 1631 -1347 
Q 1038 -1347 672 -1080 
Q 306 -813 319 -275 
z
M 784 1719 
Q 784 1066 1043 766 
Q 1303 466 1694 466 
Q 2081 466 2343 764 
Q 2606 1063 2606 1700 
Q 2606 2309 2336 2618 
Q 2066 2928 1684 2928 
Q 1309 2928 1046 2623 
Q 784 2319 784 1719 
z
" transform="scale(0.015625)"/>
      </defs>
      <use xlink:href="#ArialMT-68"/>
      <use xlink:href="#ArialMT-69" transform="translate(55.615234 0)"/>
      <use xlink:href="#ArialMT-67" transform="translate(77.832031 0)"/>
      <use xlink:href="#ArialMT-68" transform="translate(133.447266 0)"/>
      <use xlink:href="#ArialMT-20" transform="translate(189.0625 0)"/>
      <use xlink:href="#ArialMT-76" transform="translate(216.845703 0)"/>
      <use xlink:href="#ArialMT-69" transform="translate(266.845703 0)"/>
      <use xlink:href="#ArialMT-61" transform="translate(289.0625 0)"/>
      <use xlink:href="#ArialMT-62" transform="translate(344.677734 0)"/>
      <use xlink:href="#ArialMT-2e" transform="translate(400.292969 0)"/>
     </g>
    </g>
   </g>
  </g>
  <g id="axes_3">
   <g id="patch_19">
    <path d="M 38.06675 388.983 
L 192.791114 388.983 
L 192.791114 230.8875 
L 38.06675 230.8875 
z
" style="fill: #ffffff"/>
   </g>
   <g id="matplotlib.axis_5">
    <g id="xtick_3">
     <g id="line2d_17">
      <g>
       <use xlink:href="#m734932c6c8" x="115.428932" y="388.983" style="fill: #262626; stroke: #262626"/>
      </g>
     </g>
     <g id="text_29">
      <!-- 1 -->
      <g style="fill: #262626" transform="translate(112.982119 403.581875) scale(0.088 -0.088)">
       <use xlink:href="#ArialMT-31"/>
      </g>
     </g>
    </g>
    <g id="text_30">
     <!-- Experiment ID -->
     <g style="fill: #262626" transform="translate(85.020182 416.202375) scale(0.096 -0.096)">
      <use xlink:href="#ArialMT-45"/>
      <use xlink:href="#ArialMT-78" transform="translate(66.699219 0)"/>
      <use xlink:href="#ArialMT-70" transform="translate(116.699219 0)"/>
      <use xlink:href="#ArialMT-65" transform="translate(172.314453 0)"/>
      <use xlink:href="#ArialMT-72" transform="translate(227.929688 0)"/>
      <use xlink:href="#ArialMT-69" transform="translate(261.230469 0)"/>
      <use xlink:href="#ArialMT-6d" transform="translate(283.447266 0)"/>
      <use xlink:href="#ArialMT-65" transform="translate(366.748047 0)"/>
      <use xlink:href="#ArialMT-6e" transform="translate(422.363281 0)"/>
      <use xlink:href="#ArialMT-74" transform="translate(477.978516 0)"/>
      <use xlink:href="#ArialMT-20" transform="translate(505.761719 0)"/>
      <use xlink:href="#ArialMT-49" transform="translate(533.544922 0)"/>
      <use xlink:href="#ArialMT-44" transform="translate(561.328125 0)"/>
     </g>
    </g>
   </g>
   <g id="matplotlib.axis_6">
    <g id="ytick_15">
     <g id="line2d_18">
      <g>
       <use xlink:href="#m6d5d7acafa" x="38.06675" y="388.983" style="fill: #262626; stroke: #262626"/>
      </g>
     </g>
     <g id="text_31">
      <!-- 0 -->
      <g style="fill: #262626" transform="translate(24.873125 392.132438) scale(0.088 -0.088)">
       <use xlink:href="#ArialMT-30"/>
      </g>
     </g>
    </g>
    <g id="ytick_16">
     <g id="line2d_19">
      <g>
       <use xlink:href="#m6d5d7acafa" x="38.06675" y="359.460031" style="fill: #262626; stroke: #262626"/>
      </g>
     </g>
     <g id="text_32">
      <!-- 10 -->
      <g style="fill: #262626" transform="translate(19.9795 362.609468) scale(0.088 -0.088)">
       <use xlink:href="#ArialMT-31"/>
       <use xlink:href="#ArialMT-30" transform="translate(55.615234 0)"/>
      </g>
     </g>
    </g>
    <g id="ytick_17">
     <g id="line2d_20">
      <g>
       <use xlink:href="#m6d5d7acafa" x="38.06675" y="329.937062" style="fill: #262626; stroke: #262626"/>
      </g>
     </g>
     <g id="text_33">
      <!-- 20 -->
      <g style="fill: #262626" transform="translate(19.9795 333.086499) scale(0.088 -0.088)">
       <use xlink:href="#ArialMT-32"/>
       <use xlink:href="#ArialMT-30" transform="translate(55.615234 0)"/>
      </g>
     </g>
    </g>
    <g id="ytick_18">
     <g id="line2d_21">
      <g>
       <use xlink:href="#m6d5d7acafa" x="38.06675" y="300.414092" style="fill: #262626; stroke: #262626"/>
      </g>
     </g>
     <g id="text_34">
      <!-- 30 -->
      <g style="fill: #262626" transform="translate(19.9795 303.56353) scale(0.088 -0.088)">
       <use xlink:href="#ArialMT-33"/>
       <use xlink:href="#ArialMT-30" transform="translate(55.615234 0)"/>
      </g>
     </g>
    </g>
    <g id="ytick_19">
     <g id="line2d_22">
      <g>
       <use xlink:href="#m6d5d7acafa" x="38.06675" y="270.891123" style="fill: #262626; stroke: #262626"/>
      </g>
     </g>
     <g id="text_35">
      <!-- 40 -->
      <g style="fill: #262626" transform="translate(19.9795 274.040561) scale(0.088 -0.088)">
       <use xlink:href="#ArialMT-34"/>
       <use xlink:href="#ArialMT-30" transform="translate(55.615234 0)"/>
      </g>
     </g>
    </g>
    <g id="ytick_20">
     <g id="line2d_23">
      <g>
       <use xlink:href="#m6d5d7acafa" x="38.06675" y="241.368154" style="fill: #262626; stroke: #262626"/>
      </g>
     </g>
     <g id="text_36">
      <!-- 50 -->
      <g style="fill: #262626" transform="translate(19.9795 244.517592) scale(0.088 -0.088)">
       <use xlink:href="#ArialMT-35"/>
       <use xlink:href="#ArialMT-30" transform="translate(55.615234 0)"/>
      </g>
     </g>
    </g>
    <g id="text_37">
     <!-- Count -->
     <g style="fill: #262626" transform="translate(14.0715 322.743) rotate(-90) scale(0.096 -0.096)">
      <use xlink:href="#ArialMT-43"/>
      <use xlink:href="#ArialMT-6f" transform="translate(72.216797 0)"/>
      <use xlink:href="#ArialMT-75" transform="translate(127.832031 0)"/>
      <use xlink:href="#ArialMT-6e" transform="translate(183.447266 0)"/>
      <use xlink:href="#ArialMT-74" transform="translate(239.0625 0)"/>
     </g>
    </g>
   </g>
   <g id="patch_20">
    <path d="M 45.099676 388.983 
L 185.758188 388.983 
L 185.758188 288.604905 
L 45.099676 288.604905 
z
" clip-path="url(#p1ef38dff90)" style="fill: #337538; fill-opacity: 0.75; stroke: #ffffff; stroke-width: 0.8; stroke-linejoin: miter"/>
   </g>
   <g id="patch_21">
    <path d="M 45.099676 288.604905 
L 185.758188 288.604905 
L 185.758188 276.795717 
L 45.099676 276.795717 
z
" clip-path="url(#p1ef38dff90)" style="fill: #f0e442; fill-opacity: 0.75; stroke: #ffffff; stroke-width: 0.8; stroke-linejoin: miter"/>
   </g>
   <g id="patch_22">
    <path d="M 45.099676 276.795717 
L 185.758188 276.795717 
L 185.758188 238.415857 
L 45.099676 238.415857 
z
" clip-path="url(#p1ef38dff90)" style="fill: #c26a77; fill-opacity: 0.75; stroke: #ffffff; stroke-width: 0.8; stroke-linejoin: miter"/>
   </g>
   <g id="patch_23">
    <path d="M 38.06675 388.983 
L 38.06675 230.8875 
" style="fill: none; stroke: #262626; stroke-linejoin: miter; stroke-linecap: square"/>
   </g>
   <g id="patch_24">
    <path d="M 192.791114 388.983 
L 192.791114 230.8875 
" style="fill: none; stroke: #262626; stroke-linejoin: miter; stroke-linecap: square"/>
   </g>
   <g id="patch_25">
    <path d="M 38.06675 388.983 
L 192.791114 388.983 
" style="fill: none; stroke: #262626; stroke-linejoin: miter; stroke-linecap: square"/>
   </g>
   <g id="patch_26">
    <path d="M 38.06675 230.8875 
L 192.791114 230.8875 
" style="fill: none; stroke: #262626; stroke-linejoin: miter; stroke-linecap: square"/>
   </g>
   <g id="text_38">
    <!-- 34 -->
    <g style="fill: #262626" transform="translate(110.090432 341.128088) scale(0.096 -0.096)">
     <use xlink:href="#ArialMT-33"/>
     <use xlink:href="#ArialMT-34" transform="translate(55.615234 0)"/>
    </g>
   </g>
   <g id="text_39">
    <!-- 4 -->
    <g style="fill: #262626" transform="translate(112.759682 285.034446) scale(0.096 -0.096)">
     <use xlink:href="#ArialMT-34"/>
    </g>
   </g>
   <g id="text_40">
    <!-- 13 -->
    <g style="fill: #262626" transform="translate(110.090432 259.939922) scale(0.096 -0.096)">
     <use xlink:href="#ArialMT-31"/>
     <use xlink:href="#ArialMT-33" transform="translate(55.615234 0)"/>
    </g>
   </g>
   <g id="text_41">
    <!-- incubate, 3 classes -->
    <g style="fill: #262626" transform="translate(74.607932 224.8875) scale(0.096 -0.096)">
     <use xlink:href="#ArialMT-69"/>
     <use xlink:href="#ArialMT-6e" transform="translate(22.216797 0)"/>
     <use xlink:href="#ArialMT-63" transform="translate(77.832031 0)"/>
     <use xlink:href="#ArialMT-75" transform="translate(127.832031 0)"/>
     <use xlink:href="#ArialMT-62" transform="translate(183.447266 0)"/>
     <use xlink:href="#ArialMT-61" transform="translate(239.0625 0)"/>
     <use xlink:href="#ArialMT-74" transform="translate(294.677734 0)"/>
     <use xlink:href="#ArialMT-65" transform="translate(322.460938 0)"/>
     <use xlink:href="#ArialMT-2c" transform="translate(378.076172 0)"/>
     <use xlink:href="#ArialMT-20" transform="translate(405.859375 0)"/>
     <use xlink:href="#ArialMT-33" transform="translate(433.642578 0)"/>
     <use xlink:href="#ArialMT-20" transform="translate(489.257812 0)"/>
     <use xlink:href="#ArialMT-63" transform="translate(517.041016 0)"/>
     <use xlink:href="#ArialMT-6c" transform="translate(567.041016 0)"/>
     <use xlink:href="#ArialMT-61" transform="translate(589.257812 0)"/>
     <use xlink:href="#ArialMT-73" transform="translate(644.873047 0)"/>
     <use xlink:href="#ArialMT-73" transform="translate(694.873047 0)"/>
     <use xlink:href="#ArialMT-65" transform="translate(744.873047 0)"/>
     <use xlink:href="#ArialMT-73" transform="translate(800.488281 0)"/>
    </g>
   </g>
  </g>
  <g id="axes_4">
   <g id="patch_27">
    <path d="M 233.819114 388.983 
L 388.543477 388.983 
L 388.543477 230.8875 
L 233.819114 230.8875 
z
" style="fill: #ffffff"/>
   </g>
   <g id="matplotlib.axis_7">
    <g id="xtick_4">
     <g id="line2d_24">
      <g>
       <use xlink:href="#m734932c6c8" x="311.181295" y="388.983" style="fill: #262626; stroke: #262626"/>
      </g>
     </g>
     <g id="text_42">
      <!-- 1 -->
      <g style="fill: #262626" transform="translate(308.734483 403.581875) scale(0.088 -0.088)">
       <use xlink:href="#ArialMT-31"/>
      </g>
     </g>
    </g>
    <g id="text_43">
     <!-- Experiment ID -->
     <g style="fill: #262626" transform="translate(280.772545 416.202375) scale(0.096 -0.096)">
      <use xlink:href="#ArialMT-45"/>
      <use xlink:href="#ArialMT-78" transform="translate(66.699219 0)"/>
      <use xlink:href="#ArialMT-70" transform="translate(116.699219 0)"/>
      <use xlink:href="#ArialMT-65" transform="translate(172.314453 0)"/>
      <use xlink:href="#ArialMT-72" transform="translate(227.929688 0)"/>
      <use xlink:href="#ArialMT-69" transform="translate(261.230469 0)"/>
      <use xlink:href="#ArialMT-6d" transform="translate(283.447266 0)"/>
      <use xlink:href="#ArialMT-65" transform="translate(366.748047 0)"/>
      <use xlink:href="#ArialMT-6e" transform="translate(422.363281 0)"/>
      <use xlink:href="#ArialMT-74" transform="translate(477.978516 0)"/>
      <use xlink:href="#ArialMT-20" transform="translate(505.761719 0)"/>
      <use xlink:href="#ArialMT-49" transform="translate(533.544922 0)"/>
      <use xlink:href="#ArialMT-44" transform="translate(561.328125 0)"/>
     </g>
    </g>
   </g>
   <g id="matplotlib.axis_8">
    <g id="ytick_21">
     <g id="line2d_25">
      <g>
       <use xlink:href="#m6d5d7acafa" x="233.819114" y="388.983" style="fill: #262626; stroke: #262626"/>
      </g>
     </g>
     <g id="text_44">
      <!-- 0 -->
      <g style="fill: #262626" transform="translate(220.625489 392.132438) scale(0.088 -0.088)">
       <use xlink:href="#ArialMT-30"/>
      </g>
     </g>
    </g>
    <g id="ytick_22">
     <g id="line2d_26">
      <g>
       <use xlink:href="#m6d5d7acafa" x="233.819114" y="368.070897" style="fill: #262626; stroke: #262626"/>
      </g>
     </g>
     <g id="text_45">
      <!-- 10 -->
      <g style="fill: #262626" transform="translate(215.731864 371.220334) scale(0.088 -0.088)">
       <use xlink:href="#ArialMT-31"/>
       <use xlink:href="#ArialMT-30" transform="translate(55.615234 0)"/>
      </g>
     </g>
    </g>
    <g id="ytick_23">
     <g id="line2d_27">
      <g>
       <use xlink:href="#m6d5d7acafa" x="233.819114" y="347.158794" style="fill: #262626; stroke: #262626"/>
      </g>
     </g>
     <g id="text_46">
      <!-- 20 -->
      <g style="fill: #262626" transform="translate(215.731864 350.308231) scale(0.088 -0.088)">
       <use xlink:href="#ArialMT-32"/>
       <use xlink:href="#ArialMT-30" transform="translate(55.615234 0)"/>
      </g>
     </g>
    </g>
    <g id="ytick_24">
     <g id="line2d_28">
      <g>
       <use xlink:href="#m6d5d7acafa" x="233.819114" y="326.24669" style="fill: #262626; stroke: #262626"/>
      </g>
     </g>
     <g id="text_47">
      <!-- 30 -->
      <g style="fill: #262626" transform="translate(215.731864 329.396128) scale(0.088 -0.088)">
       <use xlink:href="#ArialMT-33"/>
       <use xlink:href="#ArialMT-30" transform="translate(55.615234 0)"/>
      </g>
     </g>
    </g>
    <g id="ytick_25">
     <g id="line2d_29">
      <g>
       <use xlink:href="#m6d5d7acafa" x="233.819114" y="305.334587" style="fill: #262626; stroke: #262626"/>
      </g>
     </g>
     <g id="text_48">
      <!-- 40 -->
      <g style="fill: #262626" transform="translate(215.731864 308.484025) scale(0.088 -0.088)">
       <use xlink:href="#ArialMT-34"/>
       <use xlink:href="#ArialMT-30" transform="translate(55.615234 0)"/>
      </g>
     </g>
    </g>
    <g id="ytick_26">
     <g id="line2d_30">
      <g>
       <use xlink:href="#m6d5d7acafa" x="233.819114" y="284.422484" style="fill: #262626; stroke: #262626"/>
      </g>
     </g>
     <g id="text_49">
      <!-- 50 -->
      <g style="fill: #262626" transform="translate(215.731864 287.571922) scale(0.088 -0.088)">
       <use xlink:href="#ArialMT-35"/>
       <use xlink:href="#ArialMT-30" transform="translate(55.615234 0)"/>
      </g>
     </g>
    </g>
    <g id="ytick_27">
     <g id="line2d_31">
      <g>
       <use xlink:href="#m6d5d7acafa" x="233.819114" y="263.510381" style="fill: #262626; stroke: #262626"/>
      </g>
     </g>
     <g id="text_50">
      <!-- 60 -->
      <g style="fill: #262626" transform="translate(215.731864 266.659818) scale(0.088 -0.088)">
       <use xlink:href="#ArialMT-36"/>
       <use xlink:href="#ArialMT-30" transform="translate(55.615234 0)"/>
      </g>
     </g>
    </g>
    <g id="ytick_28">
     <g id="line2d_32">
      <g>
       <use xlink:href="#m6d5d7acafa" x="233.819114" y="242.598278" style="fill: #262626; stroke: #262626"/>
      </g>
     </g>
     <g id="text_51">
      <!-- 70 -->
      <g style="fill: #262626" transform="translate(215.731864 245.747715) scale(0.088 -0.088)">
       <use xlink:href="#ArialMT-37"/>
       <use xlink:href="#ArialMT-30" transform="translate(55.615234 0)"/>
      </g>
     </g>
    </g>
    <g id="text_52">
     <!-- Count -->
     <g style="fill: #262626" transform="translate(209.823864 322.743) rotate(-90) scale(0.096 -0.096)">
      <use xlink:href="#ArialMT-43"/>
      <use xlink:href="#ArialMT-6f" transform="translate(72.216797 0)"/>
      <use xlink:href="#ArialMT-75" transform="translate(127.832031 0)"/>
      <use xlink:href="#ArialMT-6e" transform="translate(183.447266 0)"/>
      <use xlink:href="#ArialMT-74" transform="translate(239.0625 0)"/>
     </g>
    </g>
   </g>
   <g id="patch_28">
    <path d="M 240.852039 388.983 
L 381.510552 388.983 
L 381.510552 303.243377 
L 240.852039 303.243377 
z
" clip-path="url(#pda5961db9f)" style="fill: #337538; fill-opacity: 0.75; stroke: #ffffff; stroke-width: 0.8; stroke-linejoin: miter"/>
   </g>
   <g id="patch_29">
    <path d="M 240.852039 303.243377 
L 381.510552 303.243377 
L 381.510552 290.696115 
L 240.852039 290.696115 
z
" clip-path="url(#pda5961db9f)" style="fill: #f0e442; fill-opacity: 0.75; stroke: #ffffff; stroke-width: 0.8; stroke-linejoin: miter"/>
   </g>
   <g id="patch_30">
    <path d="M 240.852039 290.696115 
L 381.510552 290.696115 
L 381.510552 238.415857 
L 240.852039 238.415857 
z
" clip-path="url(#pda5961db9f)" style="fill: #c26a77; fill-opacity: 0.75; stroke: #ffffff; stroke-width: 0.8; stroke-linejoin: miter"/>
   </g>
   <g id="patch_31">
    <path d="M 233.819114 388.983 
L 233.819114 230.8875 
" style="fill: none; stroke: #262626; stroke-linejoin: miter; stroke-linecap: square"/>
   </g>
   <g id="patch_32">
    <path d="M 388.543477 388.983 
L 388.543477 230.8875 
" style="fill: none; stroke: #262626; stroke-linejoin: miter; stroke-linecap: square"/>
   </g>
   <g id="patch_33">
    <path d="M 233.819114 388.983 
L 388.543477 388.983 
" style="fill: none; stroke: #262626; stroke-linejoin: miter; stroke-linecap: square"/>
   </g>
   <g id="patch_34">
    <path d="M 233.819114 230.8875 
L 388.543477 230.8875 
" style="fill: none; stroke: #262626; stroke-linejoin: miter; stroke-linecap: square"/>
   </g>
   <g id="text_53">
    <!-- 41 -->
    <g style="fill: #262626" transform="translate(305.842795 348.490378) scale(0.096 -0.096)">
     <use xlink:href="#ArialMT-34"/>
     <use xlink:href="#ArialMT-31" transform="translate(55.615234 0)"/>
    </g>
   </g>
   <g id="text_54">
    <!-- 6 -->
    <g style="fill: #262626" transform="translate(308.512045 299.346936) scale(0.096 -0.096)">
     <use xlink:href="#ArialMT-36"/>
    </g>
   </g>
   <g id="text_55">
    <!-- 25 -->
    <g style="fill: #262626" transform="translate(305.842795 266.933176) scale(0.096 -0.096)">
     <use xlink:href="#ArialMT-32"/>
     <use xlink:href="#ArialMT-35" transform="translate(55.615234 0)"/>
    </g>
   </g>
   <g id="text_56">
    <!-- immediate, 3 classes -->
    <g style="fill: #262626" transform="translate(266.366545 224.8875) scale(0.096 -0.096)">
     <use xlink:href="#ArialMT-69"/>
     <use xlink:href="#ArialMT-6d" transform="translate(22.216797 0)"/>
     <use xlink:href="#ArialMT-6d" transform="translate(105.517578 0)"/>
     <use xlink:href="#ArialMT-65" transform="translate(188.818359 0)"/>
     <use xlink:href="#ArialMT-64" transform="translate(244.433594 0)"/>
     <use xlink:href="#ArialMT-69" transform="translate(300.048828 0)"/>
     <use xlink:href="#ArialMT-61" transform="translate(322.265625 0)"/>
     <use xlink:href="#ArialMT-74" transform="translate(377.880859 0)"/>
     <use xlink:href="#ArialMT-65" transform="translate(405.664062 0)"/>
     <use xlink:href="#ArialMT-2c" transform="translate(461.279297 0)"/>
     <use xlink:href="#ArialMT-20" transform="translate(489.0625 0)"/>
     <use xlink:href="#ArialMT-33" transform="translate(516.845703 0)"/>
     <use xlink:href="#ArialMT-20" transform="translate(572.460938 0)"/>
     <use xlink:href="#ArialMT-63" transform="translate(600.244141 0)"/>
     <use xlink:href="#ArialMT-6c" transform="translate(650.244141 0)"/>
     <use xlink:href="#ArialMT-61" transform="translate(672.460938 0)"/>
     <use xlink:href="#ArialMT-73" transform="translate(728.076172 0)"/>
     <use xlink:href="#ArialMT-73" transform="translate(778.076172 0)"/>
     <use xlink:href="#ArialMT-65" transform="translate(828.076172 0)"/>
     <use xlink:href="#ArialMT-73" transform="translate(883.691406 0)"/>
    </g>
   </g>
   <g id="legend_2">
    <g id="patch_35">
     <path d="M 398.636095 275.37425 
L 475.218095 275.37425 
Q 476.978095 275.37425 476.978095 273.61425 
L 476.978095 237.0475 
Q 476.978095 235.2875 475.218095 235.2875 
L 398.636095 235.2875 
Q 396.876095 235.2875 396.876095 237.0475 
L 396.876095 273.61425 
Q 396.876095 275.37425 398.636095 275.37425 
z
" style="fill: #ffffff; opacity: 0.8; stroke: #cccccc; stroke-width: 0.8; stroke-linejoin: miter"/>
    </g>
    <g id="patch_36">
     <path d="M 400.396095 245.106375 
L 417.996095 245.106375 
L 417.996095 238.946375 
L 400.396095 238.946375 
z
" style="fill: #337538; fill-opacity: 0.75; stroke: #ffffff; stroke-width: 0.8; stroke-linejoin: miter"/>
    </g>
    <g id="text_57">
     <!-- high viab. -->
     <g style="fill: #262626" transform="translate(425.036095 245.106375) scale(0.088 -0.088)">
      <use xlink:href="#ArialMT-68"/>
      <use xlink:href="#ArialMT-69" transform="translate(55.615234 0)"/>
      <use xlink:href="#ArialMT-67" transform="translate(77.832031 0)"/>
      <use xlink:href="#ArialMT-68" transform="translate(133.447266 0)"/>
      <use xlink:href="#ArialMT-20" transform="translate(189.0625 0)"/>
      <use xlink:href="#ArialMT-76" transform="translate(216.845703 0)"/>
      <use xlink:href="#ArialMT-69" transform="translate(266.845703 0)"/>
      <use xlink:href="#ArialMT-61" transform="translate(289.0625 0)"/>
      <use xlink:href="#ArialMT-62" transform="translate(344.677734 0)"/>
      <use xlink:href="#ArialMT-2e" transform="translate(400.292969 0)"/>
     </g>
    </g>
    <g id="patch_37">
     <path d="M 400.396095 257.657375 
L 417.996095 257.657375 
L 417.996095 251.497375 
L 400.396095 251.497375 
z
" style="fill: #f0e442; fill-opacity: 0.75; stroke: #ffffff; stroke-width: 0.8; stroke-linejoin: miter"/>
    </g>
    <g id="text_58">
     <!-- intermediate -->
     <g style="fill: #262626" transform="translate(425.036095 257.657375) scale(0.088 -0.088)">
      <use xlink:href="#ArialMT-69"/>
      <use xlink:href="#ArialMT-6e" transform="translate(22.216797 0)"/>
      <use xlink:href="#ArialMT-74" transform="translate(77.832031 0)"/>
      <use xlink:href="#ArialMT-65" transform="translate(105.615234 0)"/>
      <use xlink:href="#ArialMT-72" transform="translate(161.230469 0)"/>
      <use xlink:href="#ArialMT-6d" transform="translate(194.53125 0)"/>
      <use xlink:href="#ArialMT-65" transform="translate(277.832031 0)"/>
      <use xlink:href="#ArialMT-64" transform="translate(333.447266 0)"/>
      <use xlink:href="#ArialMT-69" transform="translate(389.0625 0)"/>
      <use xlink:href="#ArialMT-61" transform="translate(411.279297 0)"/>
      <use xlink:href="#ArialMT-74" transform="translate(466.894531 0)"/>
      <use xlink:href="#ArialMT-65" transform="translate(494.677734 0)"/>
     </g>
    </g>
    <g id="patch_38">
     <path d="M 400.396095 270.10525 
L 417.996095 270.10525 
L 417.996095 263.94525 
L 400.396095 263.94525 
z
" style="fill: #c26a77; fill-opacity: 0.75; stroke: #ffffff; stroke-width: 0.8; stroke-linejoin: miter"/>
    </g>
    <g id="text_59">
     <!-- low viab. -->
     <g style="fill: #262626" transform="translate(425.036095 270.10525) scale(0.088 -0.088)">
      <use xlink:href="#ArialMT-6c"/>
      <use xlink:href="#ArialMT-6f" transform="translate(22.216797 0)"/>
      <use xlink:href="#ArialMT-77" transform="translate(77.832031 0)"/>
      <use xlink:href="#ArialMT-20" transform="translate(150.048828 0)"/>
      <use xlink:href="#ArialMT-76" transform="translate(177.832031 0)"/>
      <use xlink:href="#ArialMT-69" transform="translate(227.832031 0)"/>
      <use xlink:href="#ArialMT-61" transform="translate(250.048828 0)"/>
      <use xlink:href="#ArialMT-62" transform="translate(305.664062 0)"/>
      <use xlink:href="#ArialMT-2e" transform="translate(361.279297 0)"/>
     </g>
    </g>
   </g>
  </g>
 </g>
 <defs>
  <clipPath id="p0da944df8f">
   <rect x="38.06675" y="20.0715" width="154.724364" height="158.0955"/>
  </clipPath>
  <clipPath id="p005a490673">
   <rect x="233.819114" y="20.0715" width="154.724364" height="158.0955"/>
  </clipPath>
  <clipPath id="p1ef38dff90">
   <rect x="38.06675" y="230.8875" width="154.724364" height="158.0955"/>
  </clipPath>
  <clipPath id="pda5961db9f">
   <rect x="233.819114" y="230.8875" width="154.724364" height="158.0955"/>
  </clipPath>
 </defs>
</svg>
